<svg width="21" height="20" viewBox="0 0 21 20" fill="none" xmlns="http://www.w3.org/2000/svg">
<g id="apple" clip-path="url(#clip0_36_2918)">
<g id="_Group_2">
<g id="_Group_3">
<path id="_Path_" d="M15.9542 10.6357C15.9742 9.07732 16.7908 7.63816 18.1183 6.82232C17.2775 5.62066 15.9183 4.88649 14.4525 4.84066C12.91 4.67899 11.415 5.76316 10.6292 5.76316C9.82833 5.76316 8.61833 4.85649 7.31499 4.88316C5.60083 4.93899 4.04083 5.88982 3.20666 7.38899C1.43083 10.464 2.75499 14.984 4.45666 17.4698C5.30833 18.6873 6.30249 20.0465 7.60499 19.999C8.87916 19.9465 9.35499 19.1865 10.8925 19.1865C12.4158 19.1865 12.8625 19.999 14.1908 19.9682C15.5575 19.9457 16.4192 18.7457 17.2408 17.5165C17.8525 16.649 18.3233 15.6907 18.635 14.6765C17.0117 13.9898 15.9558 12.399 15.9542 10.6357Z" fill="#F6F6F6"/>
<path id="_Path_2" d="M13.4452 3.20583C14.1902 2.31083 14.5577 1.16083 14.4685 0C13.3302 0.12 12.2777 0.664167 11.5227 1.52417C10.7769 2.37333 10.3985 3.48333 10.4719 4.61167C11.626 4.62333 12.7219 4.105 13.4452 3.20583Z" fill="#F6F6F6"/>
</g>
</g>
</g>
<defs>
<clipPath id="clip0_36_2918">
<rect width="20" height="20" fill="white" transform="translate(0.5)"/>
</clipPath>
</defs>
</svg>
